<svg width="27" height="36" viewBox="0 0 27 36" fill="none" xmlns="http://www.w3.org/2000/svg">
<path d="M26.0086 6.88434L20.1094 0.98512C19.4766 0.352307 18.6187 -0.00628662 17.7258 -0.00628662H3.375C1.51172 0.000744628 0 1.51246 0 3.37574V32.6257C0 34.489 1.51172 36.0007 3.375 36.0007H23.625C25.4883 36.0007 27 34.489 27 32.6257V9.27496C27 8.38199 26.6414 7.51715 26.0086 6.88434ZM23.3508 9.00074H18V3.64996L23.3508 9.00074ZM3.375 32.6257V3.37574H14.625V10.6882C14.625 11.6234 15.3773 12.3757 16.3125 12.3757H23.625V32.6257H3.375ZM5.625 29.2507H21.375V20.2507L19.7227 18.5984C19.3922 18.2679 18.8578 18.2679 18.5273 18.5984L12.375 24.7507L9.59766 21.9734C9.26719 21.6429 8.73281 21.6429 8.40234 21.9734L5.625 24.7507V29.2507ZM9 12.3757C7.13672 12.3757 5.625 13.8875 5.625 15.7507C5.625 17.614 7.13672 19.1257 9 19.1257C10.8633 19.1257 12.375 17.614 12.375 15.7507C12.375 13.8875 10.8633 12.3757 9 12.3757Z" fill="#4285F4"/>
</svg>
