<svg width="27" height="36" viewBox="0 0 27 36" fill="none" xmlns="http://www.w3.org/2000/svg">
<path d="M26.0086 6.88293L20.1094 0.983716C19.4766 0.350903 18.6187 -0.00769043 17.7258 -0.00769043H3.375C1.51172 -0.000659179 0 1.51106 0 3.37434V32.6243C0 34.4876 1.51172 35.9993 3.375 35.9993H23.625C25.4883 35.9993 27 34.4876 27 32.6243V9.27356C27 8.38059 26.6414 7.51575 26.0086 6.88293ZM23.3508 8.99934H18V3.64856L23.3508 8.99934ZM3.375 32.6243V3.37434H14.625V10.6868C14.625 11.622 15.3773 12.3743 16.3125 12.3743H23.625V32.6243H3.375Z" fill="#4285F4"/>
</svg>
