<svg width="28" height="36" viewBox="0 0 28 36" fill="none" xmlns="http://www.w3.org/2000/svg">
<path d="M12.2111 35.2737C1.91175 20.4631 0 18.9431 0 13.5C0 6.04413 6.09327 0 13.6098 0C21.1262 0 27.2195 6.04413 27.2195 13.5C27.2195 18.9431 25.3078 20.4631 15.0084 35.2737C14.3326 36.2422 12.8869 36.2421 12.2111 35.2737ZM13.6098 19.125C16.7416 19.125 19.2805 16.6066 19.2805 13.5C19.2805 10.3934 16.7416 7.875 13.6098 7.875C10.4779 7.875 7.93902 10.3934 7.93902 13.5C7.93902 16.6066 10.4779 19.125 13.6098 19.125Z" fill="#4285F4"/>
</svg>
