<svg width="13" height="14" viewBox="0 0 13 14" fill="none" xmlns="http://www.w3.org/2000/svg">
<path fill-rule="evenodd" clip-rule="evenodd" d="M7.5924 8.41379C6.16047 9.84571 3.83887 9.84571 2.40695 8.41379C0.975025 6.98187 0.975025 4.66027 2.40695 3.22834C3.83887 1.79642 6.16047 1.79642 7.5924 3.22834C9.02432 4.66027 9.02432 6.98187 7.5924 8.41379ZM8.03278 9.79675C6.07255 11.2961 3.25697 11.1494 1.46414 9.3566C-0.488483 7.40398 -0.488483 4.23816 1.46414 2.28553C3.41676 0.332912 6.58258 0.332912 8.53521 2.28553C10.328 4.07828 10.4747 6.8937 8.97556 8.85391L12.5423 12.4206L11.5995 13.3634L8.03278 9.79675Z" fill="#999999"/>
</svg>
