<svg width="20" height="20" viewBox="0 0 20 20" fill="none" xmlns="http://www.w3.org/2000/svg">
<path d="M17.9177 15.9109C17.9177 16.8037 17.6461 17.5087 17.103 18.0258C16.5598 18.543 15.8381 18.8015 14.9378 18.8015H5.1833C4.28301 18.8015 3.56128 18.543 3.01812 18.0258C2.47497 17.5087 2.20339 16.8037 2.20339 15.9109C2.20339 15.5165 2.21641 15.1315 2.24245 14.7558C2.2685 14.38 2.32058 13.9745 2.3987 13.5392C2.47683 13.104 2.57542 12.7003 2.69446 12.3283C2.81351 11.9563 2.97348 11.5936 3.17437 11.2401C3.37527 10.8867 3.60592 10.5854 3.86634 10.3361C4.12676 10.0869 4.44484 9.88782 4.82058 9.73901C5.19632 9.5902 5.61113 9.5158 6.065 9.5158C6.13196 9.5158 6.28821 9.59578 6.53375 9.75575C6.77929 9.91572 7.05644 10.0943 7.36522 10.2915C7.674 10.4886 8.07579 10.6672 8.57058 10.8272C9.06537 10.9872 9.56203 11.0671 10.0605 11.0671C10.559 11.0671 11.0557 10.9872 11.5505 10.8272C12.0453 10.6672 12.4471 10.4886 12.7559 10.2915C13.0646 10.0943 13.3418 9.91572 13.5873 9.75575C13.8329 9.59578 13.9891 9.5158 14.0561 9.5158C14.5099 9.5158 14.9248 9.5902 15.3005 9.73901C15.6762 9.88782 15.9943 10.0869 16.2547 10.3361C16.5152 10.5854 16.7458 10.8867 16.9467 11.2401C17.1476 11.5936 17.3076 11.9563 17.4266 12.3283C17.5457 12.7003 17.6442 13.104 17.7224 13.5392C17.8005 13.9745 17.8526 14.38 17.8786 14.7558C17.9047 15.1315 17.9177 15.5165 17.9177 15.9109ZM14.3463 5.94437C14.3463 7.12741 13.9277 8.13745 13.0907 8.9745C12.2536 9.81156 11.2436 10.2301 10.0605 10.2301C8.8775 10.2301 7.86746 9.81156 7.0304 8.9745C6.19335 8.13745 5.77482 7.12741 5.77482 5.94437C5.77482 4.76133 6.19335 3.75129 7.0304 2.91424C7.86746 2.07718 8.8775 1.65865 10.0605 1.65865C11.2436 1.65865 12.2536 2.07718 13.0907 2.91424C13.9277 3.75129 14.3463 4.76133 14.3463 5.94437Z" fill="#CDCDCD"/>
</svg>
