<svg width="13" height="13" viewBox="0 0 13 13" fill="none" xmlns="http://www.w3.org/2000/svg">
<path fill-rule="evenodd" clip-rule="evenodd" d="M7.66379 7.66379C6.23187 9.09571 3.91027 9.09571 2.47834 7.66379C1.04642 6.23187 1.04642 3.91027 2.47834 2.47834C3.91027 1.04642 6.23187 1.04642 7.66379 2.47834C9.09571 3.91027 9.09571 6.23187 7.66379 7.66379ZM8.10417 9.04675C6.14395 10.5461 3.32836 10.3994 1.53553 8.6066C-0.417088 6.65398 -0.417087 3.48816 1.53553 1.53553C3.48816 -0.417088 6.65398 -0.417088 8.6066 1.53553C10.3993 3.32828 10.5461 6.1437 9.04695 8.10391L12.6137 11.6706L11.6708 12.6134L8.10417 9.04675Z" fill="#4D5167"/>
</svg>
